<svg width="40" height="40" viewBox="0 0 40 40" fill="none" xmlns="http://www.w3.org/2000/svg">
<g id="vuesax/bold/bezier">
<g id="bezier">
<path id="Vector" d="M31.9 12.8665C32.3833 14.1165 33.5833 14.9998 35 14.9998C36.8333 14.9998 38.3333 13.4998 38.3333 11.6665C38.3333 9.83317 36.8333 8.33317 35 8.33317C33.5833 8.33317 32.3833 9.2165 31.9 10.4665C31.8166 10.4498 31.75 10.4165 31.6666 10.4165H25V9.1665C25 7.79984 23.8666 6.6665 22.5 6.6665H17.5C16.1333 6.6665 15 7.79984 15 9.1665V10.4165H8.33329C8.24996 10.4165 8.18329 10.4498 8.09996 10.4665C7.61663 9.2165 6.41663 8.33317 4.99996 8.33317C3.16663 8.33317 1.66663 9.83317 1.66663 11.6665C1.66663 13.4998 3.16663 14.9998 4.99996 14.9998C6.41663 14.9998 7.61663 14.1165 8.09996 12.8665C8.18329 12.8832 8.24996 12.9165 8.33329 12.9165H12.6166C9.19996 15.4498 7.08329 19.6498 7.08329 24.1665C7.08329 24.4498 7.09996 24.7165 7.13329 24.9998H6.66663C5.28329 24.9998 4.16663 26.1165 4.16663 27.4998V30.8332C4.16663 32.2165 5.28329 33.3332 6.66663 33.3332H9.99996C10.3666 33.3332 10.7 33.2498 11.0166 33.0998C11.8833 32.7332 12.5 31.8498 12.5 30.8332V27.4998C12.5 26.1165 11.3833 24.9998 9.99996 24.9998H9.61663C9.61663 24.9498 9.63329 24.8998 9.63329 24.8498C9.59996 24.6165 9.59996 24.3998 9.59996 24.1665C9.59996 20.0498 11.7166 16.2832 15.0333 14.3332C15.1 15.6165 16.1833 16.6665 17.5 16.6665H22.5C23.8166 16.6665 24.9 15.6165 24.9833 14.3332C28.3 16.2832 30.4166 20.0665 30.4166 24.1665C30.4166 24.3998 30.4 24.6165 30.3833 24.8498C30.3833 24.8998 30.4 24.9498 30.4 24.9998H30C28.6166 24.9998 27.5 26.1165 27.5 27.4998V30.8332C27.5 31.8498 28.1166 32.7332 28.9833 33.0998C29.3 33.2498 29.6333 33.3332 30 33.3332H33.3333C34.7166 33.3332 35.8333 32.2165 35.8333 30.8332V27.4998C35.8333 26.1165 34.7166 24.9998 33.3333 24.9998H32.8666C32.9 24.7165 32.9166 24.4498 32.9166 24.1665C32.9166 19.6498 30.8 15.4498 27.3833 12.9165H31.6666C31.75 12.9165 31.8166 12.8832 31.9 12.8665Z" fill="#95C047"/>
</g>
</g>
</svg>
