<svg width="40" height="40" viewBox="0 0 40 40"  xmlns="http://www.w3.org/2000/svg">
<path d="M26.6667 3.2832H13.3334C6.66671 3.2832 3.33337 6.61654 3.33337 13.2832V21.6165C3.33337 29.9499 6.66671 31.6165 13.3334 31.6165H14.1667C14.6334 31.6165 15.2334 31.9165 15.5 32.2832L18 35.6165C19.1 37.0832 20.9 37.0832 22 35.6165L24.5 32.2832C24.8167 31.8665 25.3167 31.6165 25.8334 31.6165H26.6667C33.3334 31.6165 36.6667 28.2832 36.6667 21.6165V13.2832C36.6667 6.61654 33.3334 3.2832 26.6667 3.2832ZM14.2167 20.2832C14.7 20.7665 14.7 21.5665 14.2167 22.0499C13.9667 22.2999 13.65 22.4165 13.3334 22.4165C13.0167 22.4165 12.7 22.2999 12.45 22.0499L9.11671 18.7165C8.63337 18.2332 8.63337 17.4332 9.11671 16.9499L12.45 13.6165C12.9334 13.1332 13.7334 13.1332 14.2167 13.6165C14.7 14.0999 14.7 14.8999 14.2167 15.3832L11.7667 17.8332L14.2167 20.2832ZM22.8167 14.4332L19.4834 22.2165C19.2834 22.6832 18.8167 22.9665 18.3334 22.9665C18.1667 22.9665 18 22.9332 17.8334 22.8665C17.2 22.5999 16.9 21.8665 17.1834 21.2165L20.5167 13.4332C20.7834 12.7999 21.5167 12.4999 22.1667 12.7832C22.8 13.0665 23.0834 13.7999 22.8167 14.4332ZM30.8834 18.7165L27.55 22.0499C27.3 22.2999 26.9834 22.4165 26.6667 22.4165C26.35 22.4165 26.0334 22.2999 25.7834 22.0499C25.3 21.5665 25.3 20.7665 25.7834 20.2832L28.2334 17.8332L25.7834 15.3832C25.3 14.8999 25.3 14.0999 25.7834 13.6165C26.2667 13.1332 27.0667 13.1332 27.55 13.6165L30.8834 16.9499C31.3667 17.4332 31.3667 18.2332 30.8834 18.7165Z" fill="#95C047" />
</svg>
