<svg width="40" height="40" viewBox="0 0 40 40" fill="none" xmlns="http://www.w3.org/2000/svg">
<path d="M20 36.6667C17.6667 36.6667 15.4862 36.2292 13.4584 35.3542C11.4306 34.4792 9.66671 33.2917 8.16671 31.7917C6.66671 30.2917 5.48615 28.5209 4.62504 26.4792C3.76393 24.4375 3.33337 22.25 3.33337 19.9167C3.33337 17.5834 3.76393 15.4098 4.62504 13.3959C5.48615 11.382 6.66671 9.62504 8.16671 8.12504C9.66671 6.62504 11.4306 5.45143 13.4584 4.60421C15.4862 3.75699 17.6667 3.33337 20 3.33337C22.3334 3.33337 24.5139 3.75699 26.5417 4.60421C28.5695 5.45143 30.3334 6.62504 31.8334 8.12504C33.3334 9.62504 34.5139 11.382 35.375 13.3959C36.2361 15.4098 36.6667 17.5834 36.6667 19.9167C36.6667 22.25 36.2361 24.4375 35.375 26.4792C34.5139 28.5209 33.3334 30.2917 31.8334 31.7917C30.3334 33.2917 28.5695 34.4792 26.5417 35.3542C24.5139 36.2292 22.3334 36.6667 20 36.6667ZM20 34.25C20.9723 33.25 21.7848 32.1042 22.4375 30.8125C23.0903 29.5209 23.625 27.9862 24.0417 26.2084H16C16.3889 27.875 16.9098 29.375 17.5625 30.7084C18.2153 32.0417 19.0278 33.2223 20 34.25ZM16.4584 33.75C15.7639 32.6945 15.1667 31.5556 14.6667 30.3334C14.1667 29.1112 13.75 27.7362 13.4167 26.2084H7.16671C8.22226 28.1806 9.44448 29.7292 10.8334 30.8542C12.2223 31.9792 14.0973 32.9445 16.4584 33.75ZM23.5834 33.7084C25.5834 33.0695 27.382 32.1112 28.9792 30.8334C30.5764 29.5556 31.8612 28.0139 32.8334 26.2084H26.625C26.2639 27.7084 25.8403 29.0695 25.3542 30.2917C24.8681 31.5139 24.2778 32.6528 23.5834 33.7084ZM6.33337 23.7084H12.9584C12.875 22.9584 12.8264 22.2848 12.8125 21.6875C12.7987 21.0903 12.7917 20.5 12.7917 19.9167C12.7917 19.2223 12.8056 18.6042 12.8334 18.0625C12.8612 17.5209 12.9167 16.9167 13 16.25H6.33337C6.13893 16.9167 6.00698 17.5139 5.93754 18.0417C5.8681 18.5695 5.83337 19.1945 5.83337 19.9167C5.83337 20.6389 5.8681 21.2848 5.93754 21.8542C6.00698 22.4237 6.13893 23.0417 6.33337 23.7084ZM15.5417 23.7084H24.5C24.6112 22.8473 24.6806 22.1459 24.7084 21.6042C24.7362 21.0625 24.75 20.5 24.75 19.9167C24.75 19.3612 24.7362 18.8264 24.7084 18.3125C24.6806 17.7987 24.6112 17.1112 24.5 16.25H15.5417C15.4306 17.1112 15.3612 17.7987 15.3334 18.3125C15.3056 18.8264 15.2917 19.3612 15.2917 19.9167C15.2917 20.5 15.3056 21.0625 15.3334 21.6042C15.3612 22.1459 15.4306 22.8473 15.5417 23.7084ZM27 23.7084H33.6667C33.8612 23.0417 33.9931 22.4237 34.0625 21.8542C34.132 21.2848 34.1667 20.6389 34.1667 19.9167C34.1667 19.1945 34.132 18.5695 34.0625 18.0417C33.9931 17.5139 33.8612 16.9167 33.6667 16.25H27.0417C27.125 17.2223 27.1806 17.9653 27.2084 18.4792C27.2362 18.9931 27.25 19.4723 27.25 19.9167C27.25 20.5278 27.2292 21.1042 27.1875 21.6459C27.1459 22.1875 27.0834 22.875 27 23.7084ZM26.5834 13.75H32.8334C31.9167 11.8334 30.6598 10.2362 29.0625 8.95837C27.4653 7.6806 25.625 6.77782 23.5417 6.25004C24.2362 7.27782 24.8264 8.38893 25.3125 9.58337C25.7987 10.7778 26.2223 12.1667 26.5834 13.75ZM16 13.75H24.0834C23.7778 12.2778 23.2639 10.8542 22.5417 9.47921C21.8195 8.10421 20.9723 6.88893 20 5.83337C19.1112 6.58337 18.3612 7.56948 17.75 8.79171C17.1389 10.0139 16.5556 11.6667 16 13.75ZM7.16671 13.75H13.4584C13.7639 12.25 14.1528 10.9098 14.625 9.72921C15.0973 8.54865 15.6945 7.40282 16.4167 6.29171C14.3334 6.81948 12.5139 7.70837 10.9584 8.95837C9.40282 10.2084 8.13893 11.8056 7.16671 13.75Z" fill="#95C047"/>
</svg>
